<svg width="30" height="30" viewBox="0 0 30 30" fill="none" xmlns="http://www.w3.org/2000/svg">
<path d="M15 0C6.72875 0 0 6.72875 0 15C0 23.2712 6.72875 30 15 30C23.2712 30 30 23.2712 30 15C30 6.72875 23.2712 0 15 0ZM15 27.5C8.1075 27.5 2.5 21.8925 2.5 15C2.5 8.1075 8.1075 2.5 15 2.5C21.8925 2.5 27.5 8.1075 27.5 15C27.5 21.8925 21.8925 27.5 15 27.5Z" fill="#353535"/>
<path d="M19.4387 8.96062C18.8812 8.5525 18.0994 8.67375 17.6919 9.23C17.2838 9.78687 17.405 10.5694 17.9613 10.9769C19.2381 11.9125 20 13.4162 20 15C20 17.7569 17.7569 20 15 20C12.2431 20 10 17.7569 10 15C10 13.4162 10.7619 11.9125 12.0387 10.9769C12.5956 10.5687 12.7163 9.78687 12.3081 9.23C11.9 8.67312 11.1188 8.5525 10.5613 8.96062C8.64438 10.3644 7.5 12.6225 7.5 15C7.5 19.1356 10.8644 22.5 15 22.5C19.1356 22.5 22.5 19.1356 22.5 15C22.5 12.6225 21.3556 10.3644 19.4387 8.96062Z" fill="#353535"/>
<path d="M15 5.625C14.31 5.625 13.75 6.185 13.75 6.875V15.625C13.75 16.315 14.31 16.875 15 16.875C15.69 16.875 16.25 16.315 16.25 15.625V6.875C16.25 6.185 15.69 5.625 15 5.625Z" fill="#353535"/>
</svg>
