<svg width="30" height="30" viewBox="0 0 30 30" fill="none" xmlns="http://www.w3.org/2000/svg">
<path d="M26.4403 20.7749C31.1864 16.0287 31.1863 8.30593 26.4403 3.55968C21.694 -1.18656 13.9714 -1.18656 9.22521 3.55968C5.19866 7.58623 4.58884 13.5747 7.39411 18.2511C7.39411 18.2511 7.59561 18.5892 7.32346 18.8611C5.77089 20.4136 1.11288 25.0717 1.11288 25.0717C-0.123286 26.3078 -0.417565 28.0362 0.678659 29.1326L0.867403 29.3212C1.96363 30.4176 3.69219 30.1234 4.92826 28.8873C4.92826 28.8873 9.57641 24.239 11.1258 22.6897C11.411 22.4045 11.7489 22.606 11.7489 22.606C16.4252 25.4112 22.4137 24.8015 26.4403 20.7749ZM11.4725 18.5275C7.96556 15.0205 7.96566 9.31431 11.4726 5.80732C14.9796 2.30042 20.6858 2.30033 24.1927 5.80732C27.6997 9.31421 27.6997 15.0205 24.1927 18.5275C20.6857 22.0343 14.9796 22.0343 11.4725 18.5275Z" fill="#353535"/>
<path d="M12.2488 11.4451C12.0856 11.4451 11.9197 11.413 11.7597 11.3455C11.1208 11.0751 10.8219 10.3379 11.0923 9.69888C12.7919 5.68249 17.4421 3.79765 21.4584 5.49722C22.0973 5.76763 22.3962 6.50482 22.1258 7.14383C21.8553 7.78283 21.1183 8.08156 20.4791 7.81125C17.7389 6.65172 14.5659 7.93775 13.4064 10.678C13.2036 11.1572 12.7383 11.4451 12.2488 11.4451Z" fill="#353535"/>
</svg>
