<svg width="50" height="50" viewBox="0 0 50 50" fill="none" xmlns="http://www.w3.org/2000/svg">
<path d="M25.0035 0C17.8606 0 12.0216 5.83898 12.0216 12.9819C12.0216 20.1248 17.8606 25.9638 25.0035 25.9638C32.1464 25.9638 37.9854 20.1248 37.9854 12.9819C37.9854 5.83898 32.1464 0 25.0035 0Z" fill="#353535"/>
<path d="M47.2825 36.3379C46.9423 35.4875 46.4888 34.6939 45.9786 33.9569C43.3709 30.102 39.346 27.551 34.8109 26.9274C34.244 26.8708 33.6205 26.984 33.1669 27.3242C30.7859 29.0816 27.9515 29.9886 25.0036 29.9886C22.0557 29.9886 19.2213 29.0816 16.8403 27.3242C16.3867 26.984 15.7631 26.814 15.1963 26.9274C10.6611 27.551 6.57954 30.102 4.02854 33.9569C3.51834 34.6939 3.06478 35.5443 2.72472 36.3379C2.55469 36.6781 2.61133 37.0749 2.78136 37.415C3.23492 38.2087 3.80176 39.0024 4.31196 39.6826C5.10558 40.7598 5.95595 41.7234 6.91971 42.6304C7.71333 43.424 8.62034 44.161 9.52745 44.898C14.0059 48.2427 19.3914 50 24.947 50C30.5025 50 35.888 48.2426 40.3664 44.898C41.2735 44.2178 42.1805 43.424 42.9742 42.6304C43.8812 41.7234 44.7882 40.7597 45.5819 39.6826C46.1488 38.9456 46.6591 38.2087 47.1125 37.415C47.3959 37.0749 47.4525 36.678 47.2825 36.3379Z" fill="#353535"/>
</svg>
